<?xml version="1.0" encoding="UTF-8" standalone="no"?>
<!-- Created with Inkscape (http://www.inkscape.org/) -->

<svg
   width="71.514137mm"
   height="15.66085mm"
   viewBox="0 0 71.514139 15.660849"
   version="1.1"
   id="svg5"
   inkscape:version="1.1 (c68e22c387, 2021-05-23)"
   sodipodi:docname="byanhorwatermark.svg"
   xmlns:inkscape="http://www.inkscape.org/namespaces/inkscape"
   xmlns:sodipodi="http://sodipodi.sourceforge.net/DTD/sodipodi-0.dtd"
   xmlns="http://www.w3.org/2000/svg"
   xmlns:svg="http://www.w3.org/2000/svg">
  <sodipodi:namedview
     id="namedview7"
     pagecolor="#ffffff"
     bordercolor="#666666"
     borderopacity="1.0"
     inkscape:pageshadow="2"
     inkscape:pageopacity="0.0"
     inkscape:pagecheckerboard="0"
     inkscape:document-units="mm"
     showgrid="false"
     inkscape:snap-smooth-nodes="true"
     fit-margin-top="0"
     fit-margin-left="0"
     fit-margin-right="0"
     fit-margin-bottom="0"
     inkscape:zoom="0.67081229"
     inkscape:cx="-11.92584"
     inkscape:cy="-249.69727"
     inkscape:window-width="1920"
     inkscape:window-height="1017"
     inkscape:window-x="-8"
     inkscape:window-y="-8"
     inkscape:window-maximized="1"
     inkscape:current-layer="layer1" />
  <defs
     id="defs2" />
  <g
     inkscape:label="Calque 1"
     inkscape:groupmode="layer"
     id="layer1"
     transform="translate(-82.895439,-213.22782)">
    <path
       style="fill:#000000;stroke-width:0.264583"
       d="m 107.42358,225.35345 c -0.0107,-0.0976 0.39351,-1.15678 0.8983,-2.35369 0.50479,-1.19691 0.85365,-2.28001 0.77524,-2.40689 -0.14691,-0.23769 1.46409,-2.44403 1.64931,-2.25881 0.057,0.057 -0.663,1.69956 -1.5999,3.65022 -0.9369,1.95066 -1.71223,3.46679 -1.72295,3.36917 z m 13.61628,-2.99751 c 0.0688,-1.01864 0.1916,-2.20927 0.273,-2.64583 0.14352,-0.76979 0.11074,-0.75382 -1.08609,0.52917 -0.67874,0.7276 -1.15248,1.08479 -1.05275,0.79375 0.0997,-0.29105 0.24592,-0.91376 0.32487,-1.38381 0.0789,-0.47006 0.25553,-0.78544 0.3924,-0.70084 0.13687,0.0846 0.17391,0.35011 0.0823,0.59005 -0.0916,0.23995 0.25568,0.0277 0.77175,-0.47169 0.51607,-0.49938 1.01522,-0.83105 1.10922,-0.73705 0.094,0.094 -0.0205,1.21696 -0.25453,2.49546 -0.61714,3.37194 -0.69965,3.59741 -0.56017,1.53079 z m -4.96828,0.96379 c -0.0914,-0.34303 -0.0549,-0.91633 0.0811,-1.27399 0.13598,-0.35766 0.24724,-1.04793 0.24724,-1.53393 v -0.88364 l -1.12448,0.14054 c -1.02395,0.12798 -1.79034,0.47215 -1.50372,0.6753 1.43933,1.02009 2.09903,1.59996 2.09903,1.84501 0,0.16666 -0.38695,-0.0629 -0.8599,-0.51015 -1.20031,-1.13509 -1.52907,-1.17309 -2.54132,-0.29374 -0.48823,0.42413 -0.95289,0.70594 -1.03258,0.62625 -0.0797,-0.0797 0.17093,-0.39334 0.55695,-0.69698 0.83559,-0.65728 0.89944,-1.04283 0.17268,-1.04283 -0.29104,0 -0.52916,-0.11907 -0.52916,-0.26459 0,-0.14552 0.4224,-0.26458 0.93867,-0.26458 0.6833,0 1.12309,-0.19795 1.61651,-0.7276 0.77838,-0.83554 3.79482,-5.34162 3.79482,-5.66887 0,-0.11996 0.12325,-0.21811 0.27389,-0.21811 0.18024,0 0.18803,0.16044 0.0228,0.4692 -0.27278,0.50969 -0.93945,3.05504 -1.2022,4.58996 l -0.164,0.95813 1.13007,-0.11279 c 0.83599,-0.0834 1.0268,-0.0412 0.73321,0.1623 -0.21828,0.1513 -0.71041,0.27692 -1.09362,0.27915 -0.76047,0.004 -0.99252,0.47498 -1.04581,2.12071 -0.0165,0.50933 -0.11414,1.2237 -0.21699,1.5875 l -0.18701,0.66146 z m -0.0834,-4.0065 c 0.53482,0 0.63405,-0.18775 0.87395,-1.65364 0.14884,-0.90951 0.24675,-1.68131 0.21757,-1.71511 -0.0512,-0.0593 -1.93953,2.57955 -2.39559,3.34757 -0.16903,0.28467 -0.11117,0.33275 0.23884,0.19844 0.25405,-0.0975 0.73341,-0.17726 1.06523,-0.17726 z m -12.23182,1.12448 c 0.19759,-2.00638 2.78005,-7.2037 3.58158,-7.20808 0.75885,-0.004 0.004,1.80799 -1.45642,3.49504 -1.09934,1.27018 -2.08494,3.62141 -1.81401,4.32745 0.31134,0.81133 2.31742,-0.73334 2.59092,-1.995 0.0566,-0.26112 -0.21931,-0.44481 -0.84185,-0.56049 l -0.92604,-0.17207 1.00049,-0.0348 c 1.21342,-0.0422 1.45346,0.38879 0.85789,1.54049 -0.46379,0.89687 -1.82025,1.86168 -2.61965,1.86328 -0.43361,8.7e-4 -0.48096,-0.15861 -0.37291,-1.25579 z m 3.00371,-5.39155 c 0.44768,-0.86571 0.47909,-1.11742 0.11107,-0.88996 -0.1476,0.0912 -0.52189,0.66279 -0.83174,1.27016 -0.46134,0.9043 -0.48146,1.03632 -0.11107,0.72892 0.24877,-0.20646 0.62305,-0.70556 0.83174,-1.10912 z m 16.00854,6.45121 c -0.0181,-0.31879 1.71146,-7.20232 2.01132,-8.00497 0.0944,-0.25258 0.1898,-0.28677 0.2625,-0.094 0.0946,0.25088 -0.57461,3.30836 -1.14147,5.21483 -0.12888,0.43344 -0.0487,0.41877 0.68804,-0.12594 0.70965,-0.52466 0.8707,-0.55834 1.08086,-0.22601 0.13582,0.21479 0.24878,0.8868 0.25101,1.49337 0.002,0.60656 0.0838,1.3107 0.1813,1.56475 0.12085,0.31493 0.0788,0.40104 -0.13229,0.27061 -0.17025,-0.10522 -0.30955,-0.77257 -0.30955,-1.483 0,-0.71042 -0.12787,-1.37071 -0.28417,-1.46731 -0.41151,-0.25433 -1.55633,0.9001 -2.11105,2.12877 -0.2628,0.58209 -0.48622,0.9101 -0.4965,0.72893 z m 4.53214,-0.12039 c -0.78231,-0.78231 0.15312,-3.12208 1.2482,-3.12208 1.27714,0 1.84356,2.26642 0.75668,3.02771 -0.70202,0.49171 -1.56683,0.53242 -2.00488,0.0944 z m 1.7554,-0.36954 c 1.13016,-0.79159 0.21107,-2.79013 -0.94842,-2.06232 -0.69203,0.43438 -1.02539,1.56969 -0.60843,2.0721 0.43394,0.52286 0.79968,0.52057 1.55685,-0.01 z m 1.63413,0.50422 c 0.002,-0.11773 0.17864,-0.79344 0.39348,-1.50158 0.21484,-0.70815 0.32558,-1.39276 0.2461,-1.52136 -0.0795,-0.1286 -0.0184,-0.23382 0.13569,-0.23382 0.15411,0 0.2802,0.17458 0.2802,0.38795 0,0.31071 0.18439,0.27916 0.92604,-0.15842 0.50933,-0.30051 0.92604,-0.42358 0.92604,-0.27349 0,0.15009 -0.23289,0.3468 -0.51754,0.43715 -0.69049,0.21915 -1.86371,1.64016 -1.86371,2.25733 0,0.27129 -0.11906,0.56684 -0.26458,0.65677 -0.14552,0.0899 -0.26329,0.0672 -0.26172,-0.0505 z m -22.4542,-0.92573 c -0.45239,-1.22707 -0.59583,-2.11524 -0.31343,-1.94071 0.15135,0.0935 0.27592,0.31188 0.27681,0.48519 9e-4,0.17331 0.17139,0.64052 0.37886,1.03824 0.21965,0.42105 0.27403,0.78691 0.13017,0.87582 -0.13589,0.084 -0.34847,-0.12237 -0.47241,-0.45854 z"
       id="path1585" />
    <g
       aria-label="patron délivré à M.Dupont le 09/10/2021"
       id="text2963"
       style="font-size:3.53873px;line-height:1.25;letter-spacing:0px;word-spacing:0px;stroke-width:0.0884685">
      <path
         d="m 83.2151,227.8623 v 1.02637 h -0.319661 v -2.67133 H 83.2151 v 0.29375 q 0.100218,-0.17279 0.252273,-0.25573 0.153783,-0.0847 0.366314,-0.0847 0.35249,0 0.571933,0.27992 0.221171,0.27992 0.221171,0.73608 0,0.45617 -0.221171,0.73609 -0.219443,0.27992 -0.571933,0.27992 -0.212531,0 -0.366314,-0.0829 -0.152055,-0.0847 -0.252273,-0.25746 z m 1.081663,-0.67561 q 0,-0.35076 -0.145144,-0.54947 -0.143415,-0.20043 -0.395688,-0.20043 -0.252272,0 -0.397416,0.20043 -0.143415,0.19871 -0.143415,0.54947 0,0.35077 0.143415,0.5512 0.145144,0.19871 0.397416,0.19871 0.252273,0 0.395688,-0.19871 0.145144,-0.20043 0.145144,-0.5512 z"
         id="path5681" />
      <path
         d="m 86.033298,227.17978 q -0.385321,0 -0.53392,0.0881 -0.148599,0.0881 -0.148599,0.30065 0,0.16933 0.110585,0.26955 0.112314,0.0985 0.30411,0.0985 0.264368,0 0.423334,-0.18661 0.160695,-0.18834 0.160695,-0.49936 v -0.0709 z m 0.634137,-0.13132 v 1.10413 h -0.317932 v -0.29374 q -0.108858,0.17624 -0.27128,0.26091 -0.162422,0.0829 -0.397416,0.0829 -0.297198,0 -0.473443,-0.16588 -0.174518,-0.16761 -0.174518,-0.44753 0,-0.32657 0.217715,-0.49245 0.219443,-0.16587 0.653145,-0.16587 h 0.445797 v -0.0311 q 0,-0.21944 -0.145144,-0.33866 -0.143415,-0.12096 -0.404327,-0.12096 -0.165878,0 -0.323117,0.0397 -0.157238,0.0397 -0.302381,0.11922 v -0.29374 q 0.174517,-0.0674 0.338667,-0.10022 0.16415,-0.0346 0.319661,-0.0346 0.419878,0 0.627226,0.21772 0.207347,0.21771 0.207347,0.66005 z"
         id="path5683" />
      <path
         d="m 87.636785,225.66787 v 0.54947 h 0.654872 v 0.24709 h -0.654872 v 1.05056 q 0,0.23673 0.06393,0.30411 0.06566,0.0674 0.264368,0.0674 h 0.326572 v 0.2661 h -0.326572 q -0.368042,0 -0.508001,-0.13651 -0.13996,-0.13823 -0.13996,-0.50109 v -1.05056 h -0.233266 v -0.24709 h 0.233266 v -0.54947 z"
         id="path5685" />
      <path
         d="m 89.831212,226.51454 q -0.05356,-0.0311 -0.117497,-0.0449 -0.0622,-0.0155 -0.138232,-0.0155 -0.269552,0 -0.414695,0.17624 -0.143415,0.17452 -0.143415,0.50282 v 1.01946 h -0.319661 v -1.93525 h 0.319661 v 0.30066 q 0.100218,-0.17625 0.260912,-0.26091 0.160694,-0.0864 0.390505,-0.0864 0.03283,0 0.07257,0.005 0.03974,0.003 0.08812,0.0121 z"
         id="path5687" />
      <path
         d="m 90.836847,226.44024 q -0.255728,0 -0.404327,0.20044 -0.1486,0.19871 -0.1486,0.54601 0,0.34731 0.146872,0.54775 0.148599,0.19871 0.406055,0.19871 0.254001,0 0.4026,-0.20044 0.148599,-0.20044 0.148599,-0.54602 0,-0.34385 -0.148599,-0.54428 -0.148599,-0.20217 -0.4026,-0.20217 z m 0,-0.26955 q 0.414695,0 0.651417,0.26955 0.236721,0.26956 0.236721,0.74645 0,0.47518 -0.236721,0.74646 -0.236722,0.26955 -0.651417,0.26955 -0.416423,0 -0.653144,-0.26955 -0.234994,-0.27128 -0.234994,-0.74646 0,-0.47689 0.234994,-0.74645 0.236721,-0.26955 0.653144,-0.26955 z"
         id="path5689" />
      <path
         d="m 93.860664,226.98453 v 1.16806 h -0.317933 v -1.15769 q 0,-0.27474 -0.107129,-0.41124 -0.10713,-0.1365 -0.321389,-0.1365 -0.257456,0 -0.406055,0.16415 -0.148599,0.16415 -0.148599,0.44752 v 1.09376 h -0.319661 v -1.93525 h 0.319661 v 0.30066 q 0.114041,-0.17452 0.267823,-0.26091 0.155511,-0.0864 0.357675,-0.0864 0.333484,0 0.504545,0.20735 0.171062,0.20562 0.171062,0.60649 z"
         id="path5691" />
      <path
         d="m 96.89312,226.51109 v -1.04711 h 0.317933 v 2.68861 H 96.89312 v -0.29029 q -0.100218,0.17279 -0.254,0.25746 -0.152055,0.0829 -0.366314,0.0829 -0.350763,0 -0.571933,-0.27992 -0.219443,-0.27992 -0.219443,-0.73609 0,-0.45616 0.219443,-0.73608 0.22117,-0.27992 0.571933,-0.27992 0.214259,0 0.366314,0.0847 0.153782,0.0829 0.254,0.25573 z m -1.08339,0.6756 q 0,0.35077 0.143415,0.5512 0.145144,0.19871 0.397416,0.19871 0.252273,0 0.397416,-0.19871 0.145143,-0.20043 0.145143,-0.5512 0,-0.35076 -0.145143,-0.54947 -0.145143,-0.20043 -0.397416,-0.20043 -0.252272,0 -0.397416,0.20043 -0.143415,0.19871 -0.143415,0.54947 z"
         id="path5693" />
      <path
         d="m 99.52125,227.10548 v 0.15551 h -1.4618 q 0.02074,0.3283 0.19698,0.50109 0.177974,0.17107 0.494178,0.17107 0.183157,0 0.354219,-0.0449 0.17279,-0.0449 0.342123,-0.13478 v 0.30066 q -0.171061,0.0726 -0.350763,0.11058 -0.179701,0.038 -0.364585,0.038 -0.463076,0 -0.734356,-0.26955 -0.269552,-0.26956 -0.269552,-0.72918 0,-0.47517 0.255729,-0.75336 0.257456,-0.27992 0.692886,-0.27992 0.390504,0 0.616859,0.25227 0.228082,0.25055 0.228082,0.68252 z m -0.317933,-0.0933 q -0.0035,-0.26092 -0.146871,-0.41643 -0.141688,-0.15551 -0.376681,-0.15551 -0.266096,0 -0.42679,0.15033 -0.158967,0.15033 -0.183157,0.42333 z M 98.89748,225.3223 h 0.343851 l -0.563294,0.64968 h -0.264368 z"
         id="path5695" />
      <path
         d="m 100.04307,225.46398 h 0.31794 v 2.68861 h -0.31794 z"
         id="path5697" />
      <path
         d="m 101.02625,226.21734 h 0.31793 v 1.93525 h -0.31793 z m 0,-0.75336 h 0.31793 v 0.4026 h -0.31793 z"
         id="path5699" />
      <path
         d="m 101.78134,226.21734 h 0.33694 l 0.60476,1.62423 0.60476,-1.62423 h 0.33694 l -0.72571,1.93525 h -0.43198 z"
         id="path5701" />
      <path
         d="m 105.22503,226.51454 q -0.0536,-0.0311 -0.11749,-0.0449 -0.0622,-0.0155 -0.13824,-0.0155 -0.26955,0 -0.41469,0.17624 -0.14342,0.17452 -0.14342,0.50282 v 1.01946 h -0.31966 v -1.93525 h 0.31966 v 0.30066 q 0.10022,-0.17625 0.26092,-0.26091 0.16069,-0.0864 0.3905,-0.0864 0.0328,0 0.0726,0.005 0.0397,0.003 0.0881,0.0121 z"
         id="path5703" />
      <path
         d="m 107.13609,227.10548 v 0.15551 h -1.4618 q 0.0207,0.3283 0.19698,0.50109 0.17797,0.17107 0.49417,0.17107 0.18316,0 0.35422,-0.0449 0.17279,-0.0449 0.34213,-0.13478 v 0.30066 q -0.17107,0.0726 -0.35077,0.11058 -0.1797,0.038 -0.36458,0.038 -0.46308,0 -0.73436,-0.26955 -0.26955,-0.26956 -0.26955,-0.72918 0,-0.47517 0.25573,-0.75336 0.25745,-0.27992 0.69288,-0.27992 0.39051,0 0.61686,0.25227 0.22809,0.25055 0.22809,0.68252 z m -0.31794,-0.0933 q -0.003,-0.26092 -0.14687,-0.41643 -0.14169,-0.15551 -0.37668,-0.15551 -0.2661,0 -0.42679,0.15033 -0.15897,0.15033 -0.18316,0.42333 z m -0.30583,-1.68988 h 0.34385 l -0.5633,0.64968 h -0.26437 z"
         id="path5705" />
      <path
         d="m 109.66227,227.17978 q -0.38532,0 -0.53392,0.0881 -0.1486,0.0881 -0.1486,0.30065 0,0.16933 0.11058,0.26955 0.11232,0.0985 0.30411,0.0985 0.26437,0 0.42334,-0.18661 0.16069,-0.18834 0.16069,-0.49936 v -0.0709 z m 0.63414,-0.13132 v 1.10413 h -0.31794 v -0.29374 q -0.10885,0.17624 -0.27128,0.26091 -0.16242,0.0829 -0.39741,0.0829 -0.2972,0 -0.47345,-0.16588 -0.17451,-0.16761 -0.17451,-0.44753 0,-0.32657 0.21771,-0.49245 0.21944,-0.16587 0.65315,-0.16587 h 0.44579 v -0.0311 q 0,-0.21944 -0.14514,-0.33866 -0.14342,-0.12096 -0.40433,-0.12096 -0.16588,0 -0.32311,0.0397 -0.15724,0.0397 -0.30239,0.11922 v -0.29374 q 0.17452,-0.0674 0.33867,-0.10022 0.16415,-0.0346 0.31966,-0.0346 0.41988,0 0.62723,0.21772 0.20735,0.21771 0.20735,0.66005 z m -1.0713,-1.72616 0.48727,0.64623 h -0.26437 l -0.56329,-0.64623 z"
         id="path5707" />
      <path
         d="m 112.08996,225.57284 h 0.5201 l 0.65833,1.75554 0.66178,-1.75554 h 0.5201 v 2.57975 h -0.3404 v -2.26527 l -0.66524,1.76936 h -0.35076 l -0.66524,-1.76936 v 2.26527 h -0.33867 z"
         id="path5709" />
      <path
         d="m 115.17425,227.7137 h 0.36459 v 0.43889 h -0.36459 z"
         id="path5711" />
      <path
         d="m 116.61705,225.85967 v 2.00609 h 0.4216 q 0.53392,0 0.78101,-0.24191 0.24882,-0.2419 0.24882,-0.76373 0,-0.51837 -0.24882,-0.75854 -0.24709,-0.24191 -0.78101,-0.24191 z m -0.34904,-0.28683 h 0.71708 q 0.7499,0 1.10067,0.31275 0.35076,0.31102 0.35076,0.97453 0,0.66697 -0.35249,0.97972 -0.35249,0.31275 -1.09894,0.31275 h -0.71708 z"
         id="path5713" />
      <path
         d="m 118.94625,227.38886 v -1.17152 h 0.31793 v 1.15942 q 0,0.27474 0.10713,0.41297 0.10713,0.1365 0.32139,0.1365 0.25746,0 0.40606,-0.16415 0.15032,-0.16415 0.15032,-0.44752 v -1.09722 h 0.31794 v 1.93525 h -0.31794 v -0.2972 q -0.11577,0.17625 -0.26955,0.26264 -0.15205,0.0847 -0.35422,0.0847 -0.33348,0 -0.50627,-0.20735 -0.17279,-0.20735 -0.17279,-0.60649 z m 0.80001,-1.21817 z"
         id="path5715" />
      <path
         d="m 121.52945,227.8623 v 1.02637 h -0.31966 v -2.67133 h 0.31966 v 0.29375 q 0.10022,-0.17279 0.25228,-0.25573 0.15378,-0.0847 0.36631,-0.0847 0.35249,0 0.57193,0.27992 0.22117,0.27992 0.22117,0.73608 0,0.45617 -0.22117,0.73609 -0.21944,0.27992 -0.57193,0.27992 -0.21253,0 -0.36631,-0.0829 -0.15206,-0.0847 -0.25228,-0.25746 z m 1.08167,-0.67561 q 0,-0.35076 -0.14515,-0.54947 -0.14341,-0.20043 -0.39568,-0.20043 -0.25228,0 -0.39742,0.20043 -0.14342,0.19871 -0.14342,0.54947 0,0.35077 0.14342,0.5512 0.14514,0.19871 0.39742,0.19871 0.25227,0 0.39568,-0.19871 0.14515,-0.20043 0.14515,-0.5512 z"
         id="path5717" />
      <path
         d="m 124.21806,226.44024 q -0.25573,0 -0.40433,0.20044 -0.1486,0.19871 -0.1486,0.54601 0,0.34731 0.14688,0.54775 0.14859,0.19871 0.40605,0.19871 0.254,0 0.4026,-0.20044 0.1486,-0.20044 0.1486,-0.54602 0,-0.34385 -0.1486,-0.54428 -0.1486,-0.20217 -0.4026,-0.20217 z m 0,-0.26955 q 0.4147,0 0.65142,0.26955 0.23672,0.26956 0.23672,0.74645 0,0.47518 -0.23672,0.74646 -0.23672,0.26955 -0.65142,0.26955 -0.41642,0 -0.65314,-0.26955 -0.235,-0.27128 -0.235,-0.74646 0,-0.47689 0.235,-0.74645 0.23672,-0.26955 0.65314,-0.26955 z"
         id="path5719" />
      <path
         d="m 127.24188,226.98453 v 1.16806 h -0.31794 v -1.15769 q 0,-0.27474 -0.10713,-0.41124 -0.10713,-0.1365 -0.32139,-0.1365 -0.25745,0 -0.40605,0.16415 -0.1486,0.16415 -0.1486,0.44752 v 1.09376 h -0.31966 v -1.93525 h 0.31966 v 0.30066 q 0.11404,-0.17452 0.26782,-0.26091 0.15551,-0.0864 0.35768,-0.0864 0.33348,0 0.50454,0.20735 0.17107,0.20562 0.17107,0.60649 z"
         id="path5721" />
      <path
         d="m 128.19049,225.66787 v 0.54947 h 0.65487 v 0.24709 h -0.65487 v 1.05056 q 0,0.23673 0.0639,0.30411 0.0657,0.0674 0.26437,0.0674 h 0.32657 v 0.2661 h -0.32657 q -0.36804,0 -0.508,-0.13651 -0.13996,-0.13823 -0.13996,-0.50109 v -1.05056 h -0.23327 v -0.24709 h 0.23327 v -0.54947 z"
         id="path5723" />
      <path
         d="m 130.38837,225.46398 h 0.31794 v 2.68861 h -0.31794 z"
         id="path5725" />
      <path
         d="m 133.02687,227.10548 v 0.15551 h -1.4618 q 0.0207,0.3283 0.19698,0.50109 0.17797,0.17107 0.49418,0.17107 0.18316,0 0.35422,-0.0449 0.17279,-0.0449 0.34212,-0.13478 v 0.30066 q -0.17106,0.0726 -0.35076,0.11058 -0.1797,0.038 -0.36459,0.038 -0.46307,0 -0.73435,-0.26955 -0.26955,-0.26956 -0.26955,-0.72918 0,-0.47517 0.25572,-0.75336 0.25746,-0.27992 0.69289,-0.27992 0.3905,0 0.61686,0.25227 0.22808,0.25055 0.22808,0.68252 z m -0.31793,-0.0933 q -0.003,-0.26092 -0.14687,-0.41643 -0.14169,-0.15551 -0.37668,-0.15551 -0.2661,0 -0.42679,0.15033 -0.15897,0.15033 -0.18316,0.42333 z"
         id="path5727" />
      <path
         d="m 135.46493,225.80265 q -0.26955,0 -0.40605,0.2661 -0.13478,0.26436 -0.13478,0.79656 0,0.53046 0.13478,0.79656 0.1365,0.26436 0.40605,0.26436 0.27128,0 0.40606,-0.26436 0.1365,-0.2661 0.1365,-0.79656 0,-0.5322 -0.1365,-0.79656 -0.13478,-0.2661 -0.40606,-0.2661 z m 0,-0.27646 q 0.4337,0 0.66179,0.34385 0.22981,0.34212 0.22981,0.99527 0,0.65141 -0.22981,0.99526 -0.22809,0.34213 -0.66179,0.34213 -0.4337,0 -0.66351,-0.34213 -0.22808,-0.34385 -0.22808,-0.99526 0,-0.65315 0.22808,-0.99527 0.22981,-0.34385 0.66351,-0.34385 z"
         id="path5729" />
      <path
         d="m 136.98029,228.09902 v -0.31793 q 0.13132,0.0622 0.2661,0.095 0.13478,0.0328 0.26437,0.0328 0.34558,0 0.52701,-0.23153 0.18315,-0.23327 0.20907,-0.70671 -0.10022,0.1486 -0.254,0.22808 -0.15378,0.0795 -0.34039,0.0795 -0.38705,0 -0.61341,-0.23326 -0.22462,-0.235 -0.22462,-0.64105 0,-0.39742 0.23499,-0.6376 0.23499,-0.24017 0.6255,-0.24017 0.44752,0 0.68252,0.34385 0.23672,0.34212 0.23672,0.99527 0,0.60994 -0.29029,0.97453 -0.28856,0.36286 -0.77755,0.36286 -0.13132,0 -0.2661,-0.0259 -0.13477,-0.0259 -0.27992,-0.0778 z m 0.69462,-1.09375 q 0.23499,0 0.3715,-0.1607 0.13823,-0.16069 0.13823,-0.44061 0,-0.27819 -0.13823,-0.43889 -0.13651,-0.16242 -0.3715,-0.16242 -0.23499,0 -0.37323,0.16242 -0.1365,0.1607 -0.1365,0.43889 0,0.27992 0.1365,0.44061 0.13824,0.1607 0.37323,0.1607 z"
         id="path5731" />
      <path
         d="m 139.74147,225.57284 h 0.29375 l -0.89851,2.90805 h -0.29374 z"
         id="path5733" />
      <path
         d="m 140.4741,227.85885 h 0.5702 v -1.96808 l -0.62031,0.12441 v -0.31793 l 0.61686,-0.12441 h 0.34903 v 2.28601 h 0.57021 v 0.29374 h -1.48599 z"
         id="path5735" />
      <path
         d="m 143.41152,225.80265 q -0.26955,0 -0.40605,0.2661 -0.13478,0.26436 -0.13478,0.79656 0,0.53046 0.13478,0.79656 0.1365,0.26436 0.40605,0.26436 0.27128,0 0.40606,-0.26436 0.1365,-0.2661 0.1365,-0.79656 0,-0.5322 -0.1365,-0.79656 -0.13478,-0.2661 -0.40606,-0.2661 z m 0,-0.27646 q 0.4337,0 0.66179,0.34385 0.22981,0.34212 0.22981,0.99527 0,0.65141 -0.22981,0.99526 -0.22809,0.34213 -0.66179,0.34213 -0.4337,0 -0.66351,-0.34213 -0.22808,-0.34385 -0.22808,-0.99526 0,-0.65315 0.22808,-0.99527 0.22981,-0.34385 0.66351,-0.34385 z"
         id="path5737" />
      <path
         d="m 145.43661,225.57284 h 0.29375 l -0.89851,2.90805 h -0.29374 z"
         id="path5739" />
      <path
         d="m 146.40942,227.85885 h 1.21817 v 0.29374 h -1.63805 v -0.29374 q 0.19871,-0.20562 0.54083,-0.5512 0.34385,-0.34731 0.43198,-0.44753 0.1676,-0.18834 0.23326,-0.31793 0.0674,-0.13132 0.0674,-0.25746 0,-0.20562 -0.14514,-0.33521 -0.14342,-0.12959 -0.37496,-0.12959 -0.16415,0 -0.3473,0.057 -0.18143,0.057 -0.38878,0.17279 v -0.35249 q 0.2108,-0.0847 0.39396,-0.12787 0.18316,-0.0432 0.33521,-0.0432 0.40088,0 0.63932,0.20043 0.23845,0.20044 0.23845,0.53565 0,0.15897 -0.0605,0.30238 -0.0588,0.14169 -0.21599,0.33521 -0.0432,0.0501 -0.27473,0.29029 -0.23154,0.23845 -0.65315,0.6687 z"
         id="path5741" />
      <path
         d="m 149.10666,225.80265 q -0.26955,0 -0.40605,0.2661 -0.13478,0.26436 -0.13478,0.79656 0,0.53046 0.13478,0.79656 0.1365,0.26436 0.40605,0.26436 0.27128,0 0.40606,-0.26436 0.1365,-0.2661 0.1365,-0.79656 0,-0.5322 -0.1365,-0.79656 -0.13478,-0.2661 -0.40606,-0.2661 z m 0,-0.27646 q 0.43371,0 0.66179,0.34385 0.22981,0.34212 0.22981,0.99527 0,0.65141 -0.22981,0.99526 -0.22808,0.34213 -0.66179,0.34213 -0.4337,0 -0.66351,-0.34213 -0.22808,-0.34385 -0.22808,-0.99526 0,-0.65315 0.22808,-0.99527 0.22981,-0.34385 0.66351,-0.34385 z"
         id="path5743" />
      <path
         d="m 150.91232,227.85885 h 1.21816 v 0.29374 h -1.63804 v -0.29374 q 0.19871,-0.20562 0.54083,-0.5512 0.34385,-0.34731 0.43197,-0.44753 0.16761,-0.18834 0.23327,-0.31793 0.0674,-0.13132 0.0674,-0.25746 0,-0.20562 -0.14515,-0.33521 -0.14341,-0.12959 -0.37495,-0.12959 -0.16415,0 -0.34731,0.057 -0.18143,0.057 -0.38877,0.17279 v -0.35249 q 0.2108,-0.0847 0.39396,-0.12787 0.18315,-0.0432 0.33521,-0.0432 0.40087,0 0.63932,0.20043 0.23845,0.20044 0.23845,0.53565 0,0.15897 -0.0605,0.30238 -0.0588,0.14169 -0.21598,0.33521 -0.0432,0.0501 -0.27474,0.29029 -0.23154,0.23845 -0.65314,0.6687 z"
         id="path5745" />
      <path
         d="m 152.92359,227.85885 h 0.5702 v -1.96808 l -0.62031,0.12441 v -0.31793 l 0.61686,-0.12441 h 0.34903 v 2.28601 h 0.57021 v 0.29374 h -1.48599 z"
         id="path5747" />
    </g>
  </g>
</svg>
