<?xml version="1.0" encoding="UTF-8" standalone="no"?>
<!-- Created with Inkscape (http://www.inkscape.org/) -->

<svg
   width="178.50002mm"
   height="252.45001mm"
   viewBox="0 0 178.50002 252.45001"
   version="1.1"
   id="svg5"
   inkscape:version="1.1 (c68e22c387, 2021-05-23)"
   sodipodi:docname="byanhorcanvas.svg"
   xmlns:inkscape="http://www.inkscape.org/namespaces/inkscape"
   xmlns:sodipodi="http://sodipodi.sourceforge.net/DTD/sodipodi-0.dtd"
   xmlns="http://www.w3.org/2000/svg"
   xmlns:svg="http://www.w3.org/2000/svg">
  <sodipodi:namedview
     id="namedview7"
     pagecolor="#ffffff"
     bordercolor="#666666"
     borderopacity="1.0"
     inkscape:pageshadow="2"
     inkscape:pageopacity="0.0"
     inkscape:pagecheckerboard="0"
     inkscape:document-units="mm"
     showgrid="false"
     inkscape:snap-smooth-nodes="true"
     fit-margin-top="0"
     fit-margin-left="0"
     fit-margin-right="0"
     fit-margin-bottom="0"
     inkscape:zoom="0.67081229"
     inkscape:cx="266.0953"
     inkscape:cy="476.28823"
     inkscape:window-width="1920"
     inkscape:window-height="1017"
     inkscape:window-x="-8"
     inkscape:window-y="-8"
     inkscape:window-maximized="1"
     inkscape:current-layer="layer1" />
  <defs
     id="defs2" />
  <g
     inkscape:label="Calque 1"
     inkscape:groupmode="layer"
     id="layer1"
     transform="translate(-19.61553,-21.193228)">
    <g
       id="g1621">
      <path
         id="rect846"
         style="fill:none;stroke:#000000;stroke-width:0.846559;stroke-dasharray:0.846559, 1.69311;stop-color:#000000"
         d="m 20.038809,21.616507 h 88.826731 88.82673 V 147.41823 273.21996 H 108.86554 20.038809 V 147.41823 Z"
         sodipodi:nodetypes="ccccccccc" />
      <path
         style="fill:#000000;stroke-width:0.264583"
         d="m 169.19403,271.89529 c -0.0107,-0.0976 0.39351,-1.15678 0.8983,-2.35369 0.50479,-1.19691 0.85365,-2.28001 0.77524,-2.40689 -0.14691,-0.23769 1.46409,-2.44403 1.64931,-2.25881 0.057,0.057 -0.663,1.69956 -1.5999,3.65022 -0.9369,1.95066 -1.71223,3.46679 -1.72295,3.36917 z m 13.61628,-2.99751 c 0.0688,-1.01864 0.1916,-2.20927 0.273,-2.64583 0.14352,-0.76979 0.11074,-0.75382 -1.08609,0.52917 -0.67874,0.7276 -1.15248,1.08479 -1.05275,0.79375 0.0997,-0.29105 0.24592,-0.91376 0.32487,-1.38381 0.0789,-0.47006 0.25553,-0.78544 0.3924,-0.70084 0.13687,0.0846 0.17391,0.35011 0.0823,0.59005 -0.0916,0.23995 0.25568,0.0277 0.77175,-0.47169 0.51607,-0.49938 1.01522,-0.83105 1.10922,-0.73705 0.094,0.094 -0.0205,1.21696 -0.25453,2.49546 -0.61714,3.37194 -0.69965,3.59741 -0.56017,1.53079 z m -4.96828,0.96379 c -0.0914,-0.34303 -0.0549,-0.91633 0.0811,-1.27399 0.13598,-0.35766 0.24724,-1.04793 0.24724,-1.53393 v -0.88364 l -1.12448,0.14054 c -1.02395,0.12798 -1.79034,0.47215 -1.50372,0.6753 1.43933,1.02009 2.09903,1.59996 2.09903,1.84501 0,0.16666 -0.38695,-0.0629 -0.8599,-0.51015 -1.20031,-1.13509 -1.52907,-1.17309 -2.54132,-0.29374 -0.48823,0.42413 -0.95289,0.70594 -1.03258,0.62625 -0.0797,-0.0797 0.17093,-0.39334 0.55695,-0.69698 0.83559,-0.65728 0.89944,-1.04283 0.17268,-1.04283 -0.29104,0 -0.52916,-0.11907 -0.52916,-0.26459 0,-0.14552 0.4224,-0.26458 0.93867,-0.26458 0.6833,0 1.12309,-0.19795 1.61651,-0.7276 0.77838,-0.83554 3.79482,-5.34162 3.79482,-5.66887 0,-0.11996 0.12325,-0.21811 0.27389,-0.21811 0.18024,0 0.18803,0.16044 0.0228,0.4692 -0.27278,0.50969 -0.93945,3.05504 -1.2022,4.58996 l -0.164,0.95813 1.13007,-0.11279 c 0.83599,-0.0834 1.0268,-0.0412 0.73321,0.1623 -0.21828,0.1513 -0.71041,0.27692 -1.09362,0.27915 -0.76047,0.004 -0.99252,0.47498 -1.04581,2.12071 -0.0165,0.50933 -0.11414,1.2237 -0.21699,1.5875 l -0.18701,0.66146 z m -0.0834,-4.0065 c 0.53482,0 0.63405,-0.18775 0.87395,-1.65364 0.14884,-0.90951 0.24675,-1.68131 0.21757,-1.71511 -0.0512,-0.0593 -1.93953,2.57955 -2.39559,3.34757 -0.16903,0.28467 -0.11117,0.33275 0.23884,0.19844 0.25405,-0.0975 0.73341,-0.17726 1.06523,-0.17726 z m -12.23182,1.12448 c 0.19759,-2.00638 2.78005,-7.2037 3.58158,-7.20808 0.75885,-0.004 0.004,1.80799 -1.45642,3.49504 -1.09934,1.27018 -2.08494,3.62141 -1.81401,4.32745 0.31134,0.81133 2.31742,-0.73334 2.59092,-1.995 0.0566,-0.26112 -0.21931,-0.44481 -0.84185,-0.56049 l -0.92604,-0.17207 1.00049,-0.0348 c 1.21342,-0.0422 1.45346,0.38879 0.85789,1.54049 -0.46379,0.89687 -1.82025,1.86168 -2.61965,1.86328 -0.43361,8.7e-4 -0.48096,-0.15861 -0.37291,-1.25579 z m 3.00371,-5.39155 c 0.44768,-0.86571 0.47909,-1.11742 0.11107,-0.88996 -0.1476,0.0912 -0.52189,0.66279 -0.83174,1.27016 -0.46134,0.9043 -0.48146,1.03632 -0.11107,0.72892 0.24877,-0.20646 0.62305,-0.70556 0.83174,-1.10912 z m 16.00854,6.45121 c -0.0181,-0.31879 1.71146,-7.20232 2.01132,-8.00497 0.0944,-0.25258 0.1898,-0.28677 0.2625,-0.094 0.0946,0.25088 -0.57461,3.30836 -1.14147,5.21483 -0.12888,0.43344 -0.0487,0.41877 0.68804,-0.12594 0.70965,-0.52466 0.8707,-0.55834 1.08086,-0.22601 0.13582,0.21479 0.24878,0.8868 0.25101,1.49337 0.002,0.60656 0.0838,1.3107 0.1813,1.56475 0.12085,0.31493 0.0788,0.40104 -0.13229,0.27061 -0.17025,-0.10522 -0.30955,-0.77257 -0.30955,-1.483 0,-0.71042 -0.12787,-1.37071 -0.28417,-1.46731 -0.41151,-0.25433 -1.55633,0.9001 -2.11105,2.12877 -0.2628,0.58209 -0.48622,0.9101 -0.4965,0.72893 z m 4.53214,-0.12039 c -0.78231,-0.78231 0.15312,-3.12208 1.2482,-3.12208 1.27714,0 1.84356,2.26642 0.75668,3.02771 -0.70202,0.49171 -1.56683,0.53242 -2.00488,0.0944 z m 1.7554,-0.36954 c 1.13016,-0.79159 0.21107,-2.79013 -0.94842,-2.06232 -0.69203,0.43438 -1.02539,1.56969 -0.60843,2.0721 0.43394,0.52286 0.79968,0.52057 1.55685,-0.01 z m 1.63413,0.50422 c 0.002,-0.11773 0.17864,-0.79344 0.39348,-1.50158 0.21484,-0.70815 0.32558,-1.39276 0.2461,-1.52136 -0.0795,-0.1286 -0.0184,-0.23382 0.13569,-0.23382 0.15411,0 0.2802,0.17458 0.2802,0.38795 0,0.31071 0.18439,0.27916 0.92604,-0.15842 0.50933,-0.30051 0.92604,-0.42358 0.92604,-0.27349 0,0.15009 -0.23289,0.3468 -0.51754,0.43715 -0.69049,0.21915 -1.86371,1.64016 -1.86371,2.25733 0,0.27129 -0.11906,0.56684 -0.26458,0.65677 -0.14552,0.0899 -0.26329,0.0672 -0.26172,-0.0505 z m -22.4542,-0.92573 c -0.45239,-1.22707 -0.59583,-2.11524 -0.31343,-1.94071 0.15135,0.0935 0.27592,0.31188 0.27681,0.48519 9e-4,0.17331 0.17139,0.64052 0.37886,1.03824 0.21965,0.42105 0.27403,0.78691 0.13017,0.87582 -0.13589,0.084 -0.34847,-0.12237 -0.47241,-0.45854 z"
         id="path1585" />
      <path
         id="path1059"
         style="fill:none;stroke:#000000;stroke-width:0.350497;stroke-miterlimit:4;stroke-dasharray:none;stop-color:#000000"
         d="m 114.53522,21.616507 h -5.66968 -5.66968 c 0,3.131278 2.5384,5.66968 5.66968,5.66968 3.13128,-1e-6 5.66968,-2.538403 5.66968,-5.66968 z"
         sodipodi:nodetypes="cccsc" />
      <path
         id="path1396"
         style="fill:none;stroke:#000000;stroke-width:0.350497;stroke-miterlimit:4;stroke-dasharray:none;stop-color:#000000"
         d="m 114.53522,273.21996 h -5.66968 -5.66968 c 0,-3.13128 2.5384,-5.66968 5.66968,-5.66968 3.13128,0 5.66968,2.5384 5.66968,5.66968 z"
         sodipodi:nodetypes="cccsc" />
      <path
         id="path1398"
         style="fill:none;stroke:#000000;stroke-width:0.350497;stroke-miterlimit:4;stroke-dasharray:none;stop-color:#000000"
         d="m 197.69227,141.74855 v 5.66968 5.66968 c -3.13128,0 -5.66968,-2.5384 -5.66968,-5.66968 0,-3.13128 2.5384,-5.66968 5.66968,-5.66968 z"
         sodipodi:nodetypes="cccsc" />
      <path
         id="path1400"
         style="fill:none;stroke:#000000;stroke-width:0.350497;stroke-miterlimit:4;stroke-dasharray:none;stop-color:#000000"
         d="m 20.038809,141.74855 v 5.66968 5.66968 c 3.13128,0 5.66968,-2.5384 5.66968,-5.66968 0,-3.13128 -2.5384,-5.66968 -5.66968,-5.66968 z"
         sodipodi:nodetypes="cccsc" />
    </g>
    <path
       id="byanhor.pagenumber"
       style="fill:none;stroke:none;stop-color:#000000"
       d="m 88.947213,127.3027 h 39.836647 v 40.23107 H 88.947213 Z" />
  </g>
</svg>
